<mxfile host="app.diagrams.net" modified="2023-11-26T16:44:10.443Z" agent="Mozilla/5.0 (Windows NT 10.0; Win64; x64) AppleWebKit/537.36 (KHTML, like Gecko) Chrome/121.0.0.0 Safari/537.36 Edg/121.0.0.0" etag="jeTacZi-uGTbmL-AuY56" version="22.1.4" type="device">
  <diagram name="Page-1" id="90a13364-a465-7bf4-72fc-28e22215d7a0">
    <mxGraphModel dx="362" dy="220" grid="1" gridSize="10" guides="1" tooltips="1" connect="1" arrows="1" fold="1" page="1" pageScale="1.5" pageWidth="1169" pageHeight="826" background="none" math="0" shadow="0">
      <root>
        <mxCell id="0" style=";html=1;" />
        <mxCell id="1" style=";html=1;" parent="0" />
        <mxCell id="3a17f1ce550125da-1" value="&lt;font&gt;&lt;font style=&quot;font-size: 24px;&quot;&gt;Apple 32&lt;/font&gt;&lt;br&gt;&lt;font style=&quot;font-size: 18px;&quot;&gt;A STM32F103VET6 implemented Apple I emulator with Local GPT AI and WiFi support&lt;/font&gt;&lt;/font&gt;" style="whiteSpace=wrap;html=1;shadow=1;fontSize=20;fillColor=#f5f5f5;strokeColor=#666666;strokeWidth=2;dashed=1;fontFamily=Courier New;" parent="1" vertex="1">
          <mxGeometry x="514" y="270" width="746" height="90" as="geometry" />
        </mxCell>
        <mxCell id="3a17f1ce550125da-14" style="edgeStyle=elbowEdgeStyle;rounded=0;html=1;startArrow=none;startFill=0;jettySize=auto;orthogonalLoop=1;fontSize=18;elbow=vertical;fontFamily=Courier New;" parent="1" source="3a17f1ce550125da-2" target="3a17f1ce550125da-5" edge="1">
          <mxGeometry relative="1" as="geometry" />
        </mxCell>
        <mxCell id="3a17f1ce550125da-17" style="edgeStyle=elbowEdgeStyle;rounded=0;html=1;startArrow=none;startFill=0;jettySize=auto;orthogonalLoop=1;fontSize=18;fontFamily=Courier New;" parent="1" source="3a17f1ce550125da-10" target="3a17f1ce550125da-2" edge="1">
          <mxGeometry relative="1" as="geometry">
            <Array as="points">
              <mxPoint x="847" y="870" />
            </Array>
          </mxGeometry>
        </mxCell>
        <mxCell id="3a17f1ce550125da-2" value="STM32F103VET6&lt;br&gt;(MOS 6502)" style="whiteSpace=wrap;html=1;shadow=1;fontSize=18;fillColor=#f5f5f5;strokeColor=#666666;fontFamily=Courier New;" parent="1" vertex="1">
          <mxGeometry x="727" y="570" width="170" height="280" as="geometry" />
        </mxCell>
        <mxCell id="3a17f1ce550125da-5" value="Buzzer" style="whiteSpace=wrap;html=1;shadow=1;fontSize=18;fillColor=#f5f5f5;strokeColor=#666666;fontFamily=Courier New;" parent="1" vertex="1">
          <mxGeometry x="1022" y="640" width="133" height="60" as="geometry" />
        </mxCell>
        <mxCell id="3a17f1ce550125da-6" value="SD Card" style="whiteSpace=wrap;html=1;shadow=1;fontSize=18;fillColor=#f5f5f5;strokeColor=#666666;fontFamily=Courier New;" parent="1" vertex="1">
          <mxGeometry x="977" y="720" width="120" height="60" as="geometry" />
        </mxCell>
        <mxCell id="3a17f1ce550125da-7" value="Local Generative Pre-trained Transformers Server" style="whiteSpace=wrap;html=1;shadow=1;fontSize=18;fillColor=#f5f5f5;strokeColor=#666666;fontFamily=Courier New;" parent="1" vertex="1">
          <mxGeometry x="977" y="910" width="223" height="80" as="geometry" />
        </mxCell>
        <mxCell id="3a17f1ce550125da-20" style="edgeStyle=elbowEdgeStyle;rounded=0;html=1;startArrow=none;startFill=0;jettySize=auto;orthogonalLoop=1;fontSize=18;elbow=vertical;fontFamily=Courier New;" parent="1" source="3a17f1ce550125da-8" target="3a17f1ce550125da-2" edge="1">
          <mxGeometry relative="1" as="geometry">
            <Array as="points">
              <mxPoint x="697" y="630" />
            </Array>
          </mxGeometry>
        </mxCell>
        <mxCell id="3a17f1ce550125da-8" value="PS/2&lt;br&gt;Keyboard" style="whiteSpace=wrap;html=1;shadow=1;fontSize=18;fillColor=#f5f5f5;strokeColor=#666666;fontFamily=Courier New;" parent="1" vertex="1">
          <mxGeometry x="535" y="570" width="120" height="150" as="geometry" />
        </mxCell>
        <mxCell id="3a17f1ce550125da-21" style="edgeStyle=elbowEdgeStyle;rounded=0;html=1;startArrow=none;startFill=0;jettySize=auto;orthogonalLoop=1;fontSize=18;elbow=vertical;fontFamily=Courier New;" parent="1" source="3a17f1ce550125da-2" target="3a17f1ce550125da-9" edge="1">
          <mxGeometry relative="1" as="geometry" />
        </mxCell>
        <mxCell id="i7FNVnsDXq_T55qsw0-U-10" style="edgeStyle=orthogonalEdgeStyle;rounded=0;orthogonalLoop=1;jettySize=auto;html=1;entryX=0;entryY=0.5;entryDx=0;entryDy=0;fontFamily=Courier New;" parent="1" source="3a17f1ce550125da-9" target="3a17f1ce550125da-8" edge="1">
          <mxGeometry relative="1" as="geometry">
            <Array as="points">
              <mxPoint x="480" y="780" />
              <mxPoint x="480" y="645" />
            </Array>
          </mxGeometry>
        </mxCell>
        <mxCell id="3a17f1ce550125da-9" value="DC Power&lt;br&gt;Supplies" style="whiteSpace=wrap;html=1;shadow=1;fontSize=18;fillColor=#f5f5f5;strokeColor=#666666;fontFamily=Courier New;" parent="1" vertex="1">
          <mxGeometry x="537" y="750" width="120" height="60" as="geometry" />
        </mxCell>
        <mxCell id="i7FNVnsDXq_T55qsw0-U-3" style="edgeStyle=orthogonalEdgeStyle;rounded=0;orthogonalLoop=1;jettySize=auto;html=1;entryX=0;entryY=0.5;entryDx=0;entryDy=0;startArrow=classic;startFill=1;fontFamily=Courier New;" parent="1" source="3a17f1ce550125da-10" target="3a17f1ce550125da-7" edge="1">
          <mxGeometry relative="1" as="geometry" />
        </mxCell>
        <mxCell id="3a17f1ce550125da-10" value="ESP8266" style="whiteSpace=wrap;html=1;shadow=1;fontSize=18;fillColor=#f5f5f5;strokeColor=#666666;fontFamily=Courier New;" parent="1" vertex="1">
          <mxGeometry x="739.5" y="890" width="145" height="120" as="geometry" />
        </mxCell>
        <mxCell id="3a17f1ce550125da-22" style="edgeStyle=elbowEdgeStyle;rounded=0;html=1;startArrow=none;startFill=0;jettySize=auto;orthogonalLoop=1;fontSize=18;fontFamily=Courier New;" parent="1" source="3a17f1ce550125da-10" target="3a17f1ce550125da-2" edge="1">
          <mxGeometry relative="1" as="geometry">
            <mxPoint x="877" y="900" as="sourcePoint" />
            <mxPoint x="877" y="860" as="targetPoint" />
            <Array as="points">
              <mxPoint x="867" y="870" />
              <mxPoint x="847" y="870" />
            </Array>
          </mxGeometry>
        </mxCell>
        <mxCell id="3a17f1ce550125da-23" style="edgeStyle=elbowEdgeStyle;rounded=0;html=1;startArrow=none;startFill=0;jettySize=auto;orthogonalLoop=1;fontSize=18;fontFamily=Courier New;" parent="1" edge="1">
          <mxGeometry relative="1" as="geometry">
            <mxPoint x="827" y="890" as="sourcePoint" />
            <mxPoint x="827" y="850" as="targetPoint" />
            <Array as="points">
              <mxPoint x="827" y="870" />
              <mxPoint x="827" y="870" />
            </Array>
          </mxGeometry>
        </mxCell>
        <mxCell id="3a17f1ce550125da-24" style="edgeStyle=elbowEdgeStyle;rounded=0;html=1;startArrow=none;startFill=0;jettySize=auto;orthogonalLoop=1;fontSize=18;fontFamily=Courier New;" parent="1" edge="1">
          <mxGeometry relative="1" as="geometry">
            <mxPoint x="797" y="850" as="sourcePoint" />
            <mxPoint x="797" y="890" as="targetPoint" />
            <Array as="points">
              <mxPoint x="797" y="870" />
              <mxPoint x="827" y="880" />
            </Array>
          </mxGeometry>
        </mxCell>
        <mxCell id="3a17f1ce550125da-25" style="edgeStyle=elbowEdgeStyle;rounded=0;html=1;startArrow=none;startFill=0;jettySize=auto;orthogonalLoop=1;fontSize=18;fontFamily=Courier New;" parent="1" edge="1">
          <mxGeometry relative="1" as="geometry">
            <mxPoint x="777" y="850" as="sourcePoint" />
            <mxPoint x="777" y="890" as="targetPoint" />
            <Array as="points">
              <mxPoint x="777" y="870" />
              <mxPoint x="807" y="880" />
            </Array>
          </mxGeometry>
        </mxCell>
        <mxCell id="3a17f1ce550125da-26" style="edgeStyle=elbowEdgeStyle;rounded=0;html=1;startArrow=none;startFill=0;jettySize=auto;orthogonalLoop=1;fontSize=18;fontFamily=Courier New;" parent="1" edge="1">
          <mxGeometry relative="1" as="geometry">
            <mxPoint x="757" y="850" as="sourcePoint" />
            <mxPoint x="757" y="890" as="targetPoint" />
            <Array as="points">
              <mxPoint x="757" y="870" />
              <mxPoint x="787" y="880" />
            </Array>
          </mxGeometry>
        </mxCell>
        <mxCell id="i7FNVnsDXq_T55qsw0-U-2" value="" style="shape=image;verticalLabelPosition=bottom;labelBackgroundColor=default;verticalAlign=top;aspect=fixed;imageAspect=0;image=https://upload.wikimedia.org/wikipedia/commons/thumb/8/84/Apple_Computer_Logo_rainbow.svg/514px-Apple_Computer_Logo_rainbow.svg.png;fontFamily=Courier New;" parent="1" vertex="1">
          <mxGeometry x="861.26" y="180" width="51.49" height="60" as="geometry" />
        </mxCell>
        <mxCell id="i7FNVnsDXq_T55qsw0-U-4" style="edgeStyle=elbowEdgeStyle;rounded=0;html=1;startArrow=none;startFill=0;jettySize=auto;orthogonalLoop=1;fontSize=18;elbow=vertical;fontFamily=Courier New;" parent="1" source="i7FNVnsDXq_T55qsw0-U-5" edge="1">
          <mxGeometry relative="1" as="geometry">
            <mxPoint x="897" y="826" as="targetPoint" />
          </mxGeometry>
        </mxCell>
        <mxCell id="i7FNVnsDXq_T55qsw0-U-5" value="Onboard&lt;br&gt;Buttons" style="whiteSpace=wrap;html=1;shadow=1;fontSize=18;fillColor=#f5f5f5;strokeColor=#666666;fontFamily=Courier New;" parent="1" vertex="1">
          <mxGeometry x="977" y="796" width="120" height="74" as="geometry" />
        </mxCell>
        <mxCell id="i7FNVnsDXq_T55qsw0-U-8" style="edgeStyle=elbowEdgeStyle;rounded=0;html=1;startArrow=none;startFill=0;jettySize=auto;orthogonalLoop=1;fontSize=18;elbow=vertical;fontFamily=Courier New;" parent="1" source="i7FNVnsDXq_T55qsw0-U-9" edge="1">
          <mxGeometry relative="1" as="geometry">
            <mxPoint x="1097" y="755" as="targetPoint" />
          </mxGeometry>
        </mxCell>
        <mxCell id="i7FNVnsDXq_T55qsw0-U-9" value="External&lt;br&gt;ROMs" style="whiteSpace=wrap;html=1;shadow=1;fontSize=18;fillColor=#f5f5f5;strokeColor=#666666;fontFamily=Courier New;" parent="1" vertex="1">
          <mxGeometry x="1140" y="720" width="120" height="60" as="geometry" />
        </mxCell>
        <mxCell id="i7FNVnsDXq_T55qsw0-U-11" style="edgeStyle=elbowEdgeStyle;rounded=0;html=1;startArrow=none;startFill=0;jettySize=auto;orthogonalLoop=1;fontSize=18;fontFamily=Courier New;entryX=0.735;entryY=1.024;entryDx=0;entryDy=0;entryPerimeter=0;" parent="1" target="i7FNVnsDXq_T55qsw0-U-12" edge="1">
          <mxGeometry relative="1" as="geometry">
            <Array as="points">
              <mxPoint x="846.58" y="550" />
            </Array>
            <mxPoint x="846.58" y="530" as="targetPoint" />
            <mxPoint x="846.58" y="570" as="sourcePoint" />
          </mxGeometry>
        </mxCell>
        <mxCell id="i7FNVnsDXq_T55qsw0-U-12" value="Serial Monitor&lt;br&gt;(Normal PC)" style="whiteSpace=wrap;html=1;shadow=1;fontSize=18;fillColor=#f5f5f5;strokeColor=#666666;fontFamily=Courier New;" parent="1" vertex="1">
          <mxGeometry x="739.5" y="390" width="145" height="120" as="geometry" />
        </mxCell>
        <mxCell id="i7FNVnsDXq_T55qsw0-U-13" style="edgeStyle=elbowEdgeStyle;rounded=0;html=1;startArrow=none;startFill=0;jettySize=auto;orthogonalLoop=1;fontSize=18;fontFamily=Courier New;entryX=0.871;entryY=1.031;entryDx=0;entryDy=0;entryPerimeter=0;" parent="1" target="i7FNVnsDXq_T55qsw0-U-12" edge="1">
          <mxGeometry relative="1" as="geometry">
            <mxPoint x="866.58" y="570" as="sourcePoint" />
            <mxPoint x="866.58" y="530" as="targetPoint" />
            <Array as="points">
              <mxPoint x="866.58" y="550" />
              <mxPoint x="846.58" y="550" />
            </Array>
          </mxGeometry>
        </mxCell>
        <mxCell id="i7FNVnsDXq_T55qsw0-U-14" style="edgeStyle=elbowEdgeStyle;rounded=0;html=1;startArrow=none;startFill=0;jettySize=auto;orthogonalLoop=1;fontSize=18;fontFamily=Courier New;entryX=0.599;entryY=1.021;entryDx=0;entryDy=0;entryPerimeter=0;" parent="1" target="i7FNVnsDXq_T55qsw0-U-12" edge="1">
          <mxGeometry relative="1" as="geometry">
            <mxPoint x="826.58" y="570" as="sourcePoint" />
            <mxPoint x="826.58" y="530" as="targetPoint" />
            <Array as="points">
              <mxPoint x="826.58" y="550" />
              <mxPoint x="826.58" y="550" />
            </Array>
          </mxGeometry>
        </mxCell>
        <mxCell id="i7FNVnsDXq_T55qsw0-U-15" style="edgeStyle=elbowEdgeStyle;rounded=0;html=1;startArrow=none;startFill=0;jettySize=auto;orthogonalLoop=1;fontSize=18;fontFamily=Courier New;exitX=0.396;exitY=1.014;exitDx=0;exitDy=0;exitPerimeter=0;" parent="1" source="i7FNVnsDXq_T55qsw0-U-12" edge="1">
          <mxGeometry relative="1" as="geometry">
            <mxPoint x="796.58" y="530" as="sourcePoint" />
            <mxPoint x="796.58" y="570" as="targetPoint" />
            <Array as="points">
              <mxPoint x="796.58" y="550" />
              <mxPoint x="826.58" y="560" />
            </Array>
          </mxGeometry>
        </mxCell>
        <mxCell id="i7FNVnsDXq_T55qsw0-U-16" style="edgeStyle=elbowEdgeStyle;rounded=0;html=1;startArrow=none;startFill=0;jettySize=auto;orthogonalLoop=1;fontSize=18;fontFamily=Courier New;exitX=0.256;exitY=1.019;exitDx=0;exitDy=0;exitPerimeter=0;" parent="1" source="i7FNVnsDXq_T55qsw0-U-12" edge="1">
          <mxGeometry relative="1" as="geometry">
            <mxPoint x="776.58" y="530" as="sourcePoint" />
            <mxPoint x="776.58" y="570" as="targetPoint" />
            <Array as="points">
              <mxPoint x="776.58" y="550" />
              <mxPoint x="806.58" y="560" />
            </Array>
          </mxGeometry>
        </mxCell>
        <mxCell id="i7FNVnsDXq_T55qsw0-U-17" style="edgeStyle=elbowEdgeStyle;rounded=0;html=1;startArrow=none;startFill=0;jettySize=auto;orthogonalLoop=1;fontSize=18;fontFamily=Courier New;exitX=0.12;exitY=1.007;exitDx=0;exitDy=0;exitPerimeter=0;" parent="1" source="i7FNVnsDXq_T55qsw0-U-12" edge="1">
          <mxGeometry relative="1" as="geometry">
            <mxPoint x="756.58" y="530" as="sourcePoint" />
            <mxPoint x="756.58" y="570" as="targetPoint" />
            <Array as="points">
              <mxPoint x="756.58" y="550" />
              <mxPoint x="786.58" y="560" />
            </Array>
          </mxGeometry>
        </mxCell>
        <mxCell id="i7FNVnsDXq_T55qsw0-U-22" style="edgeStyle=elbowEdgeStyle;rounded=0;html=1;startArrow=none;startFill=0;jettySize=auto;orthogonalLoop=1;fontSize=18;elbow=vertical;fontFamily=Courier New;" parent="1" edge="1">
          <mxGeometry relative="1" as="geometry">
            <mxPoint x="897.0000000000002" y="737.3596551724137" as="sourcePoint" />
            <mxPoint x="977.0000000000002" y="737.3596551724137" as="targetPoint" />
          </mxGeometry>
        </mxCell>
        <mxCell id="i7FNVnsDXq_T55qsw0-U-23" style="edgeStyle=elbowEdgeStyle;rounded=0;html=1;startArrow=none;startFill=0;jettySize=auto;orthogonalLoop=1;fontSize=18;elbow=vertical;fontFamily=Courier New;" parent="1" edge="1">
          <mxGeometry relative="1" as="geometry">
            <mxPoint x="977" y="762.36" as="sourcePoint" />
            <mxPoint x="897" y="762.36" as="targetPoint" />
          </mxGeometry>
        </mxCell>
        <mxCell id="X2tyICD9ZsHFGIOLExFm-1" value="TCP" style="text;html=1;align=center;verticalAlign=middle;resizable=0;points=[];autosize=1;strokeColor=none;fillColor=none;fontSize=18;fontFamily=Courier New;" parent="1" vertex="1">
          <mxGeometry x="901" y="915" width="60" height="40" as="geometry" />
        </mxCell>
        <mxCell id="X2tyICD9ZsHFGIOLExFm-4" style="edgeStyle=elbowEdgeStyle;rounded=0;html=1;startArrow=none;startFill=0;jettySize=auto;orthogonalLoop=1;fontSize=18;elbow=vertical;fontFamily=Courier New;" parent="1" target="X2tyICD9ZsHFGIOLExFm-5" edge="1">
          <mxGeometry relative="1" as="geometry">
            <mxPoint x="897" y="589.58" as="sourcePoint" />
            <mxPoint x="977" y="589.9133333333335" as="targetPoint" />
          </mxGeometry>
        </mxCell>
        <mxCell id="X2tyICD9ZsHFGIOLExFm-5" value="RGB888 LED" style="whiteSpace=wrap;html=1;shadow=1;fontSize=18;fillColor=#f5f5f5;strokeColor=#666666;fontFamily=Courier New;" parent="1" vertex="1">
          <mxGeometry x="1020" y="560" width="133" height="60" as="geometry" />
        </mxCell>
        <mxCell id="X2tyICD9ZsHFGIOLExFm-6" value="GPIO" style="text;html=1;align=center;verticalAlign=middle;resizable=0;points=[];autosize=1;strokeColor=none;fillColor=none;fontSize=18;fontFamily=Courier New;" parent="1" vertex="1">
          <mxGeometry x="655" y="590" width="70" height="40" as="geometry" />
        </mxCell>
        <mxCell id="X2tyICD9ZsHFGIOLExFm-7" value="SDIO" style="text;html=1;align=center;verticalAlign=middle;resizable=0;points=[];autosize=1;strokeColor=none;fillColor=none;fontSize=18;fontFamily=Courier New;" parent="1" vertex="1">
          <mxGeometry x="901" y="730" width="70" height="40" as="geometry" />
        </mxCell>
        <mxCell id="X2tyICD9ZsHFGIOLExFm-8" value="K1 (Pause CPU)" style="whiteSpace=wrap;html=1;shadow=1;fontSize=18;fillColor=#f5f5f5;strokeColor=#666666;fontFamily=Courier New;" parent="1" vertex="1">
          <mxGeometry x="1140" y="796" width="190" height="30" as="geometry" />
        </mxCell>
        <mxCell id="X2tyICD9ZsHFGIOLExFm-9" value="K2 (Clear Screen)" style="whiteSpace=wrap;html=1;shadow=1;fontSize=18;fillColor=#f5f5f5;strokeColor=#666666;fontFamily=Courier New;" parent="1" vertex="1">
          <mxGeometry x="1140" y="850" width="190" height="30" as="geometry" />
        </mxCell>
        <mxCell id="X2tyICD9ZsHFGIOLExFm-10" style="edgeStyle=elbowEdgeStyle;rounded=0;html=1;startArrow=none;startFill=0;jettySize=auto;orthogonalLoop=1;fontSize=18;elbow=vertical;fontFamily=Courier New;" parent="1" edge="1">
          <mxGeometry relative="1" as="geometry">
            <mxPoint x="1097" y="810" as="targetPoint" />
            <mxPoint x="1140" y="810" as="sourcePoint" />
          </mxGeometry>
        </mxCell>
        <mxCell id="X2tyICD9ZsHFGIOLExFm-11" style="edgeStyle=elbowEdgeStyle;rounded=0;html=1;startArrow=none;startFill=0;jettySize=auto;orthogonalLoop=1;fontSize=18;elbow=vertical;fontFamily=Courier New;" parent="1" edge="1">
          <mxGeometry relative="1" as="geometry">
            <mxPoint x="1097" y="856" as="targetPoint" />
            <mxPoint x="1140" y="856" as="sourcePoint" />
          </mxGeometry>
        </mxCell>
        <mxCell id="X2tyICD9ZsHFGIOLExFm-12" value="GPIO" style="text;html=1;align=center;verticalAlign=middle;resizable=0;points=[];autosize=1;strokeColor=none;fillColor=none;fontSize=18;fontFamily=Courier New;" parent="1" vertex="1">
          <mxGeometry x="901" y="791" width="70" height="40" as="geometry" />
        </mxCell>
        <mxCell id="X2tyICD9ZsHFGIOLExFm-13" value="Asynchronous UART" style="text;html=1;align=center;verticalAlign=middle;resizable=0;points=[];autosize=1;strokeColor=none;fillColor=none;fontSize=18;fontFamily=Courier New;" parent="1" vertex="1">
          <mxGeometry x="540" y="850" width="210" height="40" as="geometry" />
        </mxCell>
        <mxCell id="X2tyICD9ZsHFGIOLExFm-14" value="GPIO (PWM)" style="text;html=1;align=center;verticalAlign=middle;resizable=0;points=[];autosize=1;strokeColor=none;fillColor=none;fontSize=18;fontFamily=Courier New;" parent="1" vertex="1">
          <mxGeometry x="894" y="635" width="130" height="40" as="geometry" />
        </mxCell>
        <mxCell id="X2tyICD9ZsHFGIOLExFm-15" value="GPIO (PWM)" style="text;html=1;align=center;verticalAlign=middle;resizable=0;points=[];autosize=1;strokeColor=none;fillColor=none;fontSize=18;fontFamily=Courier New;" parent="1" vertex="1">
          <mxGeometry x="894" y="555" width="130" height="40" as="geometry" />
        </mxCell>
        <mxCell id="X2tyICD9ZsHFGIOLExFm-16" value="&lt;font style=&quot;font-size: 17px;&quot;&gt;&lt;b class=&quot;fr-fix-ad3d301e&quot; style=&quot;font-size: 17px;&quot;&gt;System Shortcut:&lt;/b&gt;&lt;br style=&quot;font-size: 17px;&quot;&gt;Ctrl + C: Reset System and CPU&lt;br style=&quot;font-size: 17px;&quot;&gt;Ctrl + S:&amp;nbsp;Clear Screen&lt;font style=&quot;font-size: 17px;&quot;&gt;&lt;br style=&quot;font-size: 17px;&quot;&gt;&lt;/font&gt;Ctrl + L: Loading Tapes&lt;br style=&quot;font-size: 17px;&quot;&gt;Ctrl + W: Connect to Wi-Fi &amp;amp; a TCP channel&lt;br style=&quot;font-size: 17px;&quot;&gt;Ctrl + G: Ask GPT&lt;/font&gt;" style="text;html=1;align=left;verticalAlign=middle;resizable=0;points=[];autosize=1;strokeColor=none;fillColor=none;fontFamily=Courier New;fontSize=17;" parent="1" vertex="1">
          <mxGeometry x="912.75" y="390" width="450" height="140" as="geometry" />
        </mxCell>
        <mxCell id="X2tyICD9ZsHFGIOLExFm-17" value="Asynchronous UART" style="text;html=1;align=center;verticalAlign=middle;resizable=0;points=[];autosize=1;strokeColor=none;fillColor=none;fontSize=18;fontFamily=Courier New;" parent="1" vertex="1">
          <mxGeometry x="550" y="520" width="210" height="40" as="geometry" />
        </mxCell>
      </root>
    </mxGraphModel>
  </diagram>
</mxfile>
